# xmcd
#
# Track frame offsets:
#	150
#	13097
#	26300
#	40225
#	50947
#	63007
#	82107
#	94932
#	110975
#	127630
#	141377
#	151700
#	169477
#	186525
#	198855
#	210505
#	224980
#	240250
#	260765
#	275317
#
# Disc length: 3778
#
# Revision: 2
# Processed by: cddbd v1.5.1PL0 Copyright (c) Steve Scherf et al.
# Submitted via: CDex 1.50beta9
# Normalized: r0:TDELIM( - ),TSWAP
#
DISCID=2b0ec014
DTITLE=Various Artist - The most awesome country hits
DYEAR=2000
DGENRE=Country
TTITLE0=Willie Nelson - Crazy
TTITLE1=Crystal Gayle - Talking in your sleep
TTITLE2=Glen Campbell - Witch lineman
TTITLE3=Slim Whitman - The most beautiful girl in the world
TTITLE4=Wanda Jackson - Stand by your man
TTITLE5=Bobbie Gentry - Ode to Billie Joe
TTITLE6=Kenny Rogers - Ruby don't take your love to town
TTITLE7=Billie Jo Spears - Blanket on the ground
TTITLE8=Dr Hook - More like the movies
TTITLE9=The Band - Long black veil
TTITLE10=Ricky Nelson - I can't help it (if I'm still in love with you)
TTITLE11=Suzy Bogguss - Someday soon
TTITLE12=Olivia Newton John - Me and Bobby McGee
TTITLE13=Faron Young - I fall to pieces
TTITLE14=George Jones - She thinks I still care
TTITLE15=Eddie Rabbit - I love a rainy day
TTITLE16=Tanya Tucker - Delta dawn
TTITLE17=Asleep at the wheel - Lay down Sally
TTITLE18=Billy 'Crash' Craddock - Blue eyes crying in the rain
TTITLE19=Nitty Gritty Dirt Band - Hey good lookin'
EXTD=YEAR: 2000
EXTT0=
EXTT1=
EXTT2=
EXTT3=
EXTT4=
EXTT5=
EXTT6=
EXTT7=
EXTT8=
EXTT9=
EXTT10=
EXTT11=
EXTT12=
EXTT13=
EXTT14=
EXTT15=
EXTT16=
EXTT17=
EXTT18=
EXTT19=
PLAYORDER=
